<svg width="2480" height="530" viewBox="0 0 2480 530" fill="none" xmlns="http://www.w3.org/2000/svg">
<path d="M48.642 443.891H79.3949V392.328H101.838L129.395 443.891H163.344L132.449 387.357C148.997 380.254 158.159 365.837 158.159 345.95C158.159 317.044 139.054 298.436 106.028 298.436H48.642V443.891ZM79.3949 367.612V323.578H100.134C117.889 323.578 126.483 331.462 126.483 345.95C126.483 360.368 117.889 367.612 100.276 367.612H79.3949ZM217.282 446.021C244.271 446.021 262.452 432.882 266.714 412.641L238.731 410.794C235.677 419.104 227.864 423.436 217.779 423.436C202.651 423.436 193.063 413.422 193.063 397.158V397.087H267.353V388.777C267.353 351.703 244.91 333.379 216.075 333.379C183.972 333.379 163.163 356.178 163.163 389.842C163.163 424.43 183.688 446.021 217.282 446.021ZM193.063 378.337C193.702 365.908 203.148 355.964 216.572 355.964C229.711 355.964 238.802 365.339 238.873 378.337H193.063ZM326.387 446.021C355.435 446.021 373.688 428.976 375.109 403.905H346.558C344.782 415.553 337.112 422.087 326.742 422.087C312.609 422.087 303.447 410.226 303.447 389.345C303.447 368.749 312.68 356.959 326.742 356.959C337.822 356.959 344.924 364.274 346.558 375.141H375.109C373.83 349.928 354.725 333.379 326.245 333.379C293.148 333.379 272.694 356.32 272.694 389.771C272.694 422.939 292.793 446.021 326.387 446.021ZM384.48 443.891H414.736V334.8H384.48V443.891ZM399.679 320.737C408.699 320.737 416.085 313.848 416.085 305.396C416.085 297.016 408.699 290.126 399.679 290.126C390.73 290.126 383.344 297.016 383.344 305.396C383.344 313.848 390.73 320.737 399.679 320.737ZM428.972 484.8H459.228V426.419H460.151C464.342 435.51 473.504 445.666 491.117 445.666C515.975 445.666 535.364 425.993 535.364 389.487C535.364 351.987 515.123 333.379 491.188 333.379C472.935 333.379 464.2 344.246 460.151 353.124H458.802V334.8H428.972V484.8ZM458.589 389.345C458.589 369.885 466.827 357.456 481.529 357.456C496.515 357.456 504.469 370.453 504.469 389.345C504.469 408.379 496.373 421.589 481.529 421.589C466.969 421.589 458.589 408.805 458.589 389.345ZM595.251 446.021C622.239 446.021 640.421 432.882 644.683 412.641L616.7 410.794C613.646 419.104 605.833 423.436 595.748 423.436C580.62 423.436 571.032 413.422 571.032 397.158V397.087H645.322V388.777C645.322 351.703 622.879 333.379 594.043 333.379C561.941 333.379 541.131 356.178 541.131 389.842C541.131 424.43 561.657 446.021 595.251 446.021ZM571.032 378.337C571.671 365.908 581.117 355.964 594.54 355.964C607.68 355.964 616.771 365.339 616.842 378.337H571.032ZM745.833 365.908C743.134 345.808 726.941 333.379 699.384 333.379C671.472 333.379 653.077 346.305 653.148 367.328C653.077 383.663 663.376 394.246 684.683 398.507L703.575 402.271C713.092 404.189 717.424 407.669 717.566 413.138C717.424 419.601 710.393 424.217 699.81 424.217C689.015 424.217 681.842 419.601 679.995 410.723L650.237 412.286C653.077 433.166 670.833 446.021 699.739 446.021C728.006 446.021 748.248 431.604 748.319 410.084C748.248 394.317 737.95 384.871 716.785 380.538L697.04 376.561C686.884 374.359 683.12 370.879 683.191 365.624C683.12 359.089 690.506 354.828 699.881 354.828C710.393 354.828 716.643 360.581 718.134 367.612L745.833 365.908Z" fill="black"/>
</svg>
